<svg version="1.1" xmlns="http://www.w3.org/2000/svg" x="0" y="0" viewBox="0 0 4171.22 792" xml:space="preserve"><path style="fill:#2bb2e8" class="st0" d="M645.17 7L474.43 215.73 303.61 7H0v778h265.66V348.56L474.43 633.2l208.69-284.64V785h265.66V7H645.17zM1574.77 217.27c3.33 0 6.65 3.33 6.65 6.66v344.41c0 3.33-3.32 6.66-6.65 6.66h-33.27c-3.33 0-6.66-3.33-6.66-6.66v-268.7h-1.67s-14.14 26.62-25.79 42.43L1385.93 512.6l-121.46-170.54c-11.65-15.81-25.79-42.43-25.79-42.43h-1.66v268.7c0 3.33-3.33 6.66-6.66 6.66h-33.27c-3.33 0-6.66-3.33-6.66-6.66v-344.4c0-3.33 3.33-6.66 6.66-6.66h21.63c4.98 0 9.15 2.5 13.3 8.32l153.07 214.63h1.67l153.07-214.63c4.16-5.82 8.32-8.32 13.31-8.32h21.63zM2032.27 562.51c2.51 4.99 3.33 6.66 3.33 8.32 0 2.49-1.66 4.16-5 4.16h-34.1c-5.82 0-8.32-.83-11.64-7.49l-34.95-69.05H1743.6l-34.93 69.05c-3.34 6.66-5.82 7.49-11.66 7.49h-34.1c-3.33 0-5-1.66-5-4.16 0-1.66.84-3.33 3.33-8.32l175.53-345.24h19.97l175.53 345.24zM1764.4 456.86h163.89l-47.43-94.01c-16.63-33.27-32.44-75.7-32.44-75.7h-3.33s-15.8 42.43-32.44 75.7l-48.25 94.01zM2158.68 568.33c0 3.33-3.33 6.66-6.66 6.66h-33.27c-3.33 0-6.66-3.33-6.66-6.66v-344.4c0-3.33 3.33-6.66 6.66-6.66h33.27c3.33 0 6.66 3.33 6.66 6.66v344.4zM2325.05 533.4h222.11c3.33 0 7.49 4.16 7.49 7.49v26.62c0 3.33-4.16 7.49-7.49 7.49h-262.05c-3.32 0-6.66-3.33-6.66-6.66V223.93c0-3.33 3.34-6.66 6.66-6.66h33.28c3.32 0 6.66 3.33 6.66 6.66V533.4zM2655.27 457.69c5.84 0 8.32 1.66 8.32 7.49 0 49.91 34.95 76.53 128.12 76.53 78.19 0 112.31-29.95 112.31-68.21 0-29.95-22.47-51.58-84.86-57.41l-92.34-8.31c-77.37-7.49-108.98-39.1-108.98-87.35 0-52.41 51.57-111.48 157.23-111.48 113.14 0 158.06 49.08 158.06 110.64 0 3.33-2.5 6.66-6.66 6.66h-30.78c-5.82 0-9.14-2.5-9.14-8.32 0-41.59-37.43-67.38-111.48-67.38-78.2 0-110.65 36.61-110.65 69.88 0 24.12 19.14 43.26 65.74 47.42l91.5 8.32c95.67 9.15 128.94 44.92 128.94 96.5s-44.92 110.65-158.89 110.65c-118.96 0-173.87-46.59-173.87-118.13 0-5.82 2.49-7.49 7.48-7.49h29.95v-.01zM3004.64 258.87c-3.32 0-7.5-4.16-7.5-7.49v-26.62c0-3.33 4.18-7.49 7.5-7.49h352.73c3.32 0 7.49 4.16 7.49 7.49v26.62c0 3.33-4.17 7.49-7.49 7.49h-153.08v309.47c0 3.33-3.32 6.66-6.66 6.66h-33.26c-3.34 0-6.65-3.33-6.65-6.66V258.87h-153.08zM3487.94 412.77V533.4h251.24c3.33 0 7.48 4.16 7.48 7.49v26.62c0 3.33-4.15 7.49-7.48 7.49h-291.17c-3.33 0-6.65-3.33-6.65-6.66V223.93c0-3.33 3.32-6.66 6.65-6.66h282.85c3.32 0 7.48 4.16 7.48 7.49v26.62c0 3.33-4.16 7.49-7.48 7.49h-242.92v112.31h230.44c3.32 0 7.48 4.16 7.48 7.49v26.62c0 3.33-4.16 7.49-7.48 7.49h-230.44v-.01zM3843.96 223.93c0-3.33 3.33-6.66 6.65-6.66h179.69c81.52 0 141.42 44.09 141.42 118.96 0 59.07-36.6 97.33-94.83 109.81v.84s12.48 12.48 24.13 27.45l67.38 87.36c2.5 3.32 5.82 7.48 5.82 9.15 0 2.49-1.66 4.16-4.99 4.16h-41.59c-4.99 0-7.49-1.66-9.99-4.99l-92.34-119.79h-134.77v118.13c0 3.33-3.33 6.66-6.65 6.66h-33.28c-3.32 0-6.65-3.33-6.65-6.66V223.93zm46.58 34.94v151.4h138.92c57.41 0 95.68-24.96 95.68-74.04 0-48.25-39.93-77.36-96.5-77.36h-138.1z"/></svg>